<svg width="36" height="36" viewBox="0 0 36 36" fill="none" xmlns="http://www.w3.org/2000/svg">
<path fill-rule="evenodd" clip-rule="evenodd" d="M18 35C27.3888 35 35 27.3888 35 18C35 8.61116 27.3888 1 18 1C8.61116 1 1 8.61116 1 18C1 27.3888 8.61116 35 18 35Z" stroke="#2B3991"/>
<path d="M21.7835 10.2117L19.7844 10.2085C17.5385 10.2085 16.087 11.7002 16.087 14.0089V15.7611H14.077C13.9033 15.7611 13.7627 15.9022 13.7627 16.0762V18.615C13.7627 18.789 13.9035 18.9299 14.077 18.9299H16.087V25.3361C16.087 25.51 16.2277 25.6509 16.4014 25.6509H19.0239C19.1976 25.6509 19.3382 25.5099 19.3382 25.3361V18.9299H21.6884C21.8621 18.9299 22.0027 18.789 22.0027 18.615L22.0037 16.0762C22.0037 15.9926 21.9705 15.9126 21.9116 15.8535C21.8528 15.7944 21.7726 15.7611 21.6892 15.7611H19.3382V14.2757C19.3382 13.5618 19.5081 13.1994 20.4365 13.1994L21.7832 13.1989C21.9567 13.1989 22.0973 13.0578 22.0973 12.884V10.5266C22.0973 10.3529 21.9569 10.212 21.7835 10.2117Z" fill="#162B60"/>
</svg>
