<svg width="22" height="14" viewBox="0 0 22 14" fill="none" xmlns="http://www.w3.org/2000/svg">
<path d="M21.5002 11.1009L15.1015 6.94655L21.5002 1.74841V11.1009Z" fill="#162B60" stroke="#2B3991"/>
<path d="M12.8963 8.7381L12.8965 8.73795L13.5895 8.17507L21.4662 13.2884C21.4118 13.4085 21.2869 13.5001 21.1277 13.5001H0.867969C0.712469 13.5001 0.586274 13.4091 0.530675 13.2878L8.41043 8.17501L9.10352 8.73795L9.10371 8.7381C9.65641 9.18656 10.3274 9.40732 11 9.40732C11.6726 9.40732 12.3436 9.18656 12.8963 8.7381Z" fill="#162B60" stroke="#2B3991"/>
<mask id="path-3-inside-1_850_577" fill="white">
<path d="M21.1321 0H0.868045C0.868045 0 0.868045 0 0.863748 0C0.739139 0 0.687577 0.15509 0.782108 0.230539L8.74422 6.6982C8.74422 6.6982 8.74422 6.6982 8.74851 6.7024L9.97312 7.7C10.5661 8.18204 11.4298 8.18204 12.0227 7.7L21.2137 0.230539C21.3083 0.15509 21.2567 0 21.1321 0Z"/>
</mask>
<path d="M21.1321 0H0.868045C0.868045 0 0.868045 0 0.863748 0C0.739139 0 0.687577 0.15509 0.782108 0.230539L8.74422 6.6982C8.74422 6.6982 8.74422 6.6982 8.74851 6.7024L9.97312 7.7C10.5661 8.18204 11.4298 8.18204 12.0227 7.7L21.2137 0.230539C21.3083 0.15509 21.2567 0 21.1321 0Z" fill="#162B60"/>
<path d="M0.782108 0.230539L1.41263 -0.545678L1.40592 -0.551039L0.782108 0.230539ZM8.74422 6.6982L8.11371 7.47439L8.95706 8.15944L9.56994 7.26228L8.74422 6.6982ZM8.74851 6.7024L8.05023 7.41822L8.08225 7.44945L8.11693 7.4777L8.74851 6.7024ZM9.97312 7.7L9.34153 8.47531L9.34233 8.47596L9.97312 7.7ZM12.0227 7.7L11.392 6.92396L11.3919 6.92405L12.0227 7.7ZM21.2137 0.230539L20.5899 -0.551069L20.5831 -0.545502L21.2137 0.230539ZM21.1321 -1H0.868045V1H21.1321V-1ZM0.868045 0C0.868045 -1 0.868045 -1 0.868045 -1C0.868045 -1 0.868045 -1 0.868045 -1C0.868045 -1 0.868045 -1 0.868045 -1C0.868045 -1 0.868045 -1 0.868045 -1C0.868045 -1 0.868045 -1 0.868045 -1C0.868045 -1 0.868045 -1 0.868045 -1C0.868045 -1 0.868045 -1 0.868045 -1H0.868045C0.868045 -1 0.868045 -1 0.868045 -1C0.868045 -1 0.868045 -1 0.868045 -1C0.868045 -1 0.868045 -1 0.868045 -1C0.868045 -1 0.868045 -1 0.868045 -1C0.868045 -1 0.868045 -1 0.868045 -1C0.868045 -1 0.868045 -1 0.868045 -1C0.868045 -1 0.868045 -1 0.868045 -1C0.868045 -1 0.868045 -1 0.868045 -1C0.868045 -1 0.868045 -1 0.868045 -1C0.868045 -1 0.868045 -1 0.868045 -1C0.868045 -1 0.868045 -1 0.868045 -1C0.868045 -1 0.868045 -1 0.868045 -1C0.868045 -1 0.868045 -1 0.868045 -1C0.868045 -1 0.868045 -1 0.868044 -1C0.868044 -1 0.868044 -1 0.868044 -1C0.868044 -1 0.868044 -1 0.868044 -1C0.868044 -1 0.868044 -1 0.868044 -1C0.868044 -1 0.868044 -1 0.868044 -1C0.868044 -1 0.868044 -1 0.868044 -1C0.868044 -1 0.868044 -1 0.868044 -1C0.868044 -1 0.868044 -1 0.868044 -1C0.868044 -1 0.868044 -1 0.868044 -1C0.868044 -1 0.868043 -1 0.868043 -1C0.868043 -1 0.868043 -1 0.868043 -1C0.868043 -1 0.868043 -1 0.868043 -1C0.868043 -1 0.868043 -1 0.868043 -1C0.868043 -1 0.868043 -1 0.868043 -1C0.868043 -1 0.868043 -1 0.868043 -1C0.868043 -1 0.868042 -1 0.868042 -1C0.868042 -1 0.868042 -1 0.868042 -1C0.868042 -1 0.868042 -1 0.868042 -1C0.868042 -1 0.868042 -1 0.868042 -1C0.868042 -1 0.868042 -1 0.868042 -1C0.868042 -1 0.868041 -1 0.868041 -1C0.868041 -1 0.868041 -1 0.868041 -1C0.868041 -1 0.868041 -1 0.868041 -1C0.868041 -1 0.868041 -1 0.868041 -1C0.868041 -1 0.86804 -1 0.86804 -1C0.86804 -1 0.86804 -1 0.86804 -1C0.86804 -1 0.86804 -1 0.86804 -1C0.86804 -1 0.86804 -1 0.868039 -1C0.868039 -1 0.868039 -1 0.868039 -1C0.868039 -1 0.868039 -1 0.868039 -1C0.868039 -1 0.868039 -1 0.868038 -1C0.868038 -1 0.868038 -1 0.868038 -1C0.868038 -1 0.868038 -1 0.868038 -1C0.868038 -1 0.868037 -1 0.868037 -1C0.868037 -1 0.868037 -1 0.868037 -1C0.868037 -1 0.868037 -1 0.868037 -1C0.868036 -1 0.868036 -1 0.868036 -1C0.868036 -1 0.868036 -1 0.868036 -1C0.868036 -1 0.868035 -1 0.868035 -1C0.868035 -1 0.868035 -1 0.868035 -1C0.868035 -1 0.868035 -1 0.868034 -1C0.868034 -1 0.868034 -1 0.868034 -1C0.868034 -1 0.868034 -1 0.868033 -1C0.868033 -1 0.868033 -1 0.868033 -1C0.868033 -1 0.868033 -1 0.868032 -1C0.868032 -1 0.868032 -1 0.868032 -1C0.868032 -1 0.868031 -1 0.868031 -1C0.868031 -1 0.868031 -1 0.868031 -1C0.868031 -1 0.86803 -1 0.86803 -1C0.86803 -1 0.86803 -1 0.86803 -1C0.868029 -1 0.868029 -1 0.868029 -1C0.868029 -1 0.868029 -1 0.868028 -1C0.868028 -1 0.868028 -1 0.868028 -1C0.868027 -1 0.868027 -1 0.868027 -1C0.868027 -1 0.868027 -1 0.868026 -1C0.868026 -1 0.868026 -1 0.868026 -1C0.868025 -1 0.868025 -1 0.868025 -1C0.868025 -1 0.868025 -1 0.868024 -1C0.868024 -1 0.868024 -1 0.868024 -1C0.868023 -1 0.868023 -1 0.868023 -1C0.868023 -1 0.868022 -1 0.868022 -1C0.868022 -1 0.868021 -1 0.868021 -1C0.868021 -1 0.868021 -1 0.86802 -1C0.86802 -1 0.86802 -1 0.86802 -1C0.868019 -1 0.868019 -1 0.868019 -1C0.868018 -1 0.868018 -1 0.868018 -1C0.868018 -1 0.868017 -1 0.868017 -1C0.868017 -1 0.868016 -1 0.868016 -1C0.868016 -1 0.868016 -1 0.868015 -1C0.868015 -1 0.868015 -1 0.868014 -1C0.868014 -1 0.868014 -1 0.868013 -1C0.868013 -1 0.868013 -1 0.868012 -1C0.868012 -1 0.868012 -1 0.868011 -1C0.868011 -1 0.868011 -1 0.86801 -1C0.86801 -1 0.86801 -1 0.868009 -1C0.868009 -1 0.868009 -1 0.868008 -1C0.868008 -1 0.868008 -1 0.868007 -1C0.868007 -1 0.868006 -1 0.868006 -1C0.868006 -1 0.868005 -1 0.868005 -1C0.868005 -1 0.868004 -1 0.868004 -1C0.868004 -1 0.868003 -1 0.868003 -1C0.868002 -1 0.868002 -1 0.868002 -1C0.868001 -1 0.868001 -1 0.868 -1C0.868 -1 0.868 -1 0.867999 -1C0.867999 -1 0.867998 -1 0.867998 -1C0.867997 -1 0.867997 -1 0.867997 -1C0.867996 -1 0.867996 -1 0.867995 -1C0.867995 -1 0.867995 -1 0.867994 -1C0.867994 -1 0.867993 -1 0.867993 -1C0.867992 -1 0.867992 -1 0.867991 -1C0.867991 -1 0.86799 -1 0.86799 -1C0.86799 -1 0.867989 -1 0.867989 -1C0.867988 -1 0.867988 -1 0.867987 -1C0.867987 -1 0.867986 -1 0.867986 -1C0.867985 -1 0.867985 -1 0.867984 -1C0.867984 -1 0.867983 -1 0.867983 -1C0.867982 -1 0.867982 -1 0.867981 -1C0.867981 -1 0.86798 -1 0.86798 -1C0.867979 -1 0.867979 -1 0.867978 -1C0.867978 -1 0.867977 -1 0.867977 -1C0.867976 -1 0.867976 -1 0.867975 -1C0.867974 -1 0.867974 -1 0.867973 -1C0.867973 -1 0.867972 -1 0.867972 -1C0.867971 -1 0.867971 -1 0.86797 -1C0.867969 -1 0.867969 -1 0.867968 -1C0.867968 -1 0.867967 -1 0.867967 -1C0.867966 -1 0.867965 -1 0.867965 -1C0.867964 -1 0.867964 -1 0.867963 -1C0.867962 -1 0.867962 -1 0.867961 -1C0.867961 -1 0.86796 -1 0.867959 -1C0.867959 -1 0.867958 -1 0.867958 -1C0.867957 -1 0.867956 -1 0.867956 -1C0.867955 -1 0.867954 -1 0.867954 -1C0.867953 -1 0.867952 -1 0.867952 -1C0.867951 -1 0.86795 -1 0.86795 -1C0.867949 -1 0.867948 -1 0.867948 -1C0.867947 -1 0.867946 -1 0.867946 -1C0.867945 -1 0.867944 -1 0.867944 -1C0.867943 -1 0.867942 -1 0.867942 -1C0.867941 -1 0.86794 -1 0.867939 -1C0.867939 -1 0.867938 -1 0.867937 -1C0.867937 -1 0.867936 -1 0.867935 -1C0.867934 -1 0.867934 -1 0.867933 -1C0.867932 -1 0.867931 -1 0.867931 -1C0.86793 -1 0.867929 -1 0.867928 -1C0.867928 -1 0.867927 -1 0.867926 -1C0.867925 -1 0.867925 -1 0.867924 -1C0.867923 -1 0.867922 -1 0.867921 -1C0.867921 -1 0.86792 -1 0.867919 -1C0.867918 -1 0.867917 -1 0.867917 -1C0.867916 -1 0.867915 -1 0.867914 -1C0.867913 -1 0.867913 -1 0.867912 -1C0.867911 -1 0.86791 -1 0.867909 -1C0.867908 -1 0.867908 -1 0.867907 -1C0.867906 -1 0.867905 -1 0.867904 -1C0.867903 -1 0.867902 -1 0.867902 -1C0.867901 -1 0.8679 -1 0.867899 -1C0.867898 -1 0.867897 -1 0.867896 -1C0.867895 -1 0.867894 -1 0.867894 -1C0.867893 -1 0.867892 -1 0.867891 -1C0.86789 -1 0.867889 -1 0.867888 -1C0.867887 -1 0.867886 -1 0.867885 -1C0.867884 -1 0.867883 -1 0.867882 -1C0.867881 -1 0.867881 -1 0.86788 -1C0.867879 -1 0.867878 -1 0.867877 -1C0.867876 -1 0.867875 -1 0.867874 -1C0.867873 -1 0.867872 -1 0.867871 -1C0.86787 -1 0.867869 -1 0.867868 -1C0.867867 -1 0.867866 -1 0.867865 -1C0.867864 -1 0.867863 -1 0.867862 -1C0.867861 -1 0.86786 -1 0.867859 -1C0.867858 -1 0.867857 -1 0.867856 -1C0.867854 -1 0.867853 -1 0.867852 -1C0.867851 -1 0.86785 -1 0.867849 -1C0.867848 -1 0.867847 -1 0.867846 -1C0.867845 -1 0.867844 -1 0.867843 -1C0.867842 -1 0.86784 -1 0.867839 -1C0.867838 -1 0.867837 -1 0.867836 -1C0.867835 -1 0.867834 -1 0.867833 -1C0.867831 -1 0.86783 -1 0.867829 -1C0.867828 -1 0.867827 -1 0.867826 -1C0.867825 -1 0.867823 -1 0.867822 -1C0.867821 -1 0.86782 -1 0.867819 -1C0.867818 -1 0.867816 -1 0.867815 -1C0.867814 -1 0.867813 -1 0.867812 -1C0.86781 -1 0.867809 -1 0.867808 -1C0.867807 -1 0.867806 -1 0.867804 -1C0.867803 -1 0.867802 -1 0.867801 -1C0.867799 -1 0.867798 -1 0.867797 -1C0.867796 -1 0.867794 -1 0.867793 -1C0.867792 -1 0.867791 -1 0.867789 -1C0.867788 -1 0.867787 -1 0.867785 -1C0.867784 -1 0.867783 -1 0.867781 -1C0.86778 -1 0.867779 -1 0.867778 -1C0.867776 -1 0.867775 -1 0.867774 -1C0.867772 -1 0.867771 -1 0.86777 -1C0.867768 -1 0.867767 -1 0.867765 -1C0.867764 -1 0.867763 -1 0.867761 -1C0.86776 -1 0.867759 -1 0.867757 -1C0.867756 -1 0.867754 -1 0.867753 -1C0.867752 -1 0.86775 -1 0.867749 -1C0.867747 -1 0.867746 -1 0.867745 -1C0.867743 -1 0.867742 -1 0.86774 -1C0.867739 -1 0.867737 -1 0.867736 -1C0.867735 -1 0.867733 -1 0.867732 -1C0.86773 -1 0.867729 -1 0.867727 -1C0.867726 -1 0.867724 -1 0.867723 -1C0.867721 -1 0.86772 -1 0.867718 -1C0.867717 -1 0.867715 -1 0.867714 -1C0.867712 -1 0.867711 -1 0.867709 -1C0.867708 -1 0.867706 -1 0.867704 -1C0.867703 -1 0.867701 -1 0.8677 -1C0.867698 -1 0.867697 -1 0.867695 -1C0.867693 -1 0.867692 -1 0.86769 -1C0.867689 -1 0.867687 -1 0.867686 -1C0.867684 -1 0.867682 -1 0.867681 -1C0.867679 -1 0.867677 -1 0.867676 -1C0.867674 -1 0.867673 -1 0.867671 -1C0.867669 -1 0.867668 -1 0.867666 -1C0.867664 -1 0.867663 -1 0.867661 -1C0.867659 -1 0.867658 -1 0.867656 -1C0.867654 -1 0.867652 -1 0.867651 -1C0.867649 -1 0.867647 -1 0.867646 -1C0.867644 -1 0.867642 -1 0.86764 -1C0.867639 -1 0.867637 -1 0.867635 -1C0.867633 -1 0.867632 -1 0.86763 -1C0.867628 -1 0.867626 -1 0.867625 -1C0.867623 -1 0.867621 -1 0.867619 -1C0.867617 -1 0.867616 -1 0.867614 -1C0.867612 -1 0.86761 -1 0.867608 -1C0.867606 -1 0.867605 -1 0.867603 -1C0.867601 -1 0.867599 -1 0.867597 -1C0.867595 -1 0.867593 -1 0.867592 -1C0.86759 -1 0.867588 -1 0.867586 -1C0.867584 -1 0.867582 -1 0.86758 -1C0.867578 -1 0.867576 -1 0.867575 -1C0.867573 -1 0.867571 -1 0.867569 -1C0.867567 -1 0.867565 -1 0.867563 -1C0.867561 -1 0.867559 -1 0.867557 -1C0.867555 -1 0.867553 -1 0.867551 -1C0.867549 -1 0.867547 -1 0.867545 -1C0.867543 -1 0.867541 -1 0.867539 -1C0.867537 -1 0.867535 -1 0.867533 -1C0.867531 -1 0.867529 -1 0.867527 -1C0.867525 -1 0.867523 -1 0.867521 -1C0.867519 -1 0.867517 -1 0.867515 -1C0.867512 -1 0.86751 -1 0.867508 -1C0.867506 -1 0.867504 -1 0.867502 -1C0.8675 -1 0.867498 -1 0.867496 -1C0.867493 -1 0.867491 -1 0.867489 -1C0.867487 -1 0.867485 -1 0.867483 -1C0.867481 -1 0.867478 -1 0.867476 -1C0.867474 -1 0.867472 -1 0.86747 -1C0.867467 -1 0.867465 -1 0.867463 -1C0.867461 -1 0.867459 -1 0.867456 -1C0.867454 -1 0.867452 -1 0.86745 -1C0.867447 -1 0.867445 -1 0.867443 -1C0.867441 -1 0.867438 -1 0.867436 -1C0.867434 -1 0.867431 -1 0.867429 -1C0.867427 -1 0.867425 -1 0.867422 -1C0.86742 -1 0.867418 -1 0.867415 -1C0.867413 -1 0.867411 -1 0.867408 -1C0.867406 -1 0.867403 -1 0.867401 -1C0.867399 -1 0.867396 -1 0.867394 -1C0.867392 -1 0.867389 -1 0.867387 -1C0.867384 -1 0.867382 -1 0.86738 -1C0.867377 -1 0.867375 -1 0.867372 -1C0.86737 -1 0.867367 -1 0.867365 -1C0.867362 -1 0.86736 -1 0.867358 -1C0.867355 -1 0.867353 -1 0.86735 -1C0.867348 -1 0.867345 -1 0.867343 -1C0.86734 -1 0.867338 -1 0.867335 -1C0.867332 -1 0.86733 -1 0.867327 -1C0.867325 -1 0.867322 -1 0.86732 -1C0.867317 -1 0.867315 -1 0.867312 -1C0.867309 -1 0.867307 -1 0.867304 -1C0.867302 -1 0.867299 -1 0.867296 -1C0.867294 -1 0.867291 -1 0.867289 -1C0.867286 -1 0.867283 -1 0.867281 -1C0.867278 -1 0.867275 -1 0.867273 -1C0.86727 -1 0.867267 -1 0.867265 -1C0.867262 -1 0.867259 -1 0.867256 -1C0.867254 -1 0.867251 -1 0.867248 -1C0.867246 -1 0.867243 -1 0.86724 -1C0.867237 -1 0.867235 -1 0.867232 -1C0.867229 -1 0.867226 -1 0.867223 -1C0.867221 -1 0.867218 -1 0.867215 -1C0.867212 -1 0.867209 -1 0.867207 -1C0.867204 -1 0.867201 -1 0.867198 -1C0.867195 -1 0.867192 -1 0.86719 -1C0.867187 -1 0.867184 -1 0.867181 -1C0.867178 -1 0.867175 -1 0.867172 -1C0.867169 -1 0.867166 -1 0.867164 -1C0.867161 -1 0.867158 -1 0.867155 -1C0.867152 -1 0.867149 -1 0.867146 -1C0.867143 -1 0.86714 -1 0.867137 -1C0.867134 -1 0.867131 -1 0.867128 -1C0.867125 -1 0.867122 -1 0.867119 -1C0.867116 -1 0.867113 -1 0.86711 -1C0.867107 -1 0.867104 -1 0.867101 -1C0.867098 -1 0.867095 -1 0.867092 -1C0.867089 -1 0.867085 -1 0.867082 -1C0.867079 -1 0.867076 -1 0.867073 -1C0.86707 -1 0.867067 -1 0.867064 -1C0.867061 -1 0.867057 -1 0.867054 -1C0.867051 -1 0.867048 -1 0.867045 -1C0.867042 -1 0.867038 -1 0.867035 -1C0.867032 -1 0.867029 -1 0.867026 -1C0.867022 -1 0.867019 -1 0.867016 -1C0.867013 -1 0.867009 -1 0.867006 -1C0.867003 -1 0.867 -1 0.866996 -1C0.866993 -1 0.86699 -1 0.866986 -1C0.866983 -1 0.86698 -1 0.866976 -1C0.866973 -1 0.86697 -1 0.866967 -1C0.866963 -1 0.86696 -1 0.866956 -1C0.866953 -1 0.86695 -1 0.866946 -1C0.866943 -1 0.86694 -1 0.866936 -1C0.866933 -1 0.866929 -1 0.866926 -1C0.866923 -1 0.866919 -1 0.866916 -1C0.866912 -1 0.866909 -1 0.866905 -1C0.866902 -1 0.866898 -1 0.866895 -1C0.866891 -1 0.866888 -1 0.866884 -1C0.866881 -1 0.866877 -1 0.866874 -1C0.86687 -1 0.866867 -1 0.866863 -1C0.86686 -1 0.866856 -1 0.866853 -1C0.866849 -1 0.866845 -1 0.866842 -1C0.866838 -1 0.866835 -1 0.866831 -1C0.866827 -1 0.866824 -1 0.86682 -1C0.866816 -1 0.866813 -1 0.866809 -1C0.866805 -1 0.866802 -1 0.866798 -1C0.866794 -1 0.866791 -1 0.866787 -1C0.866783 -1 0.86678 -1 0.866776 -1C0.866772 -1 0.866768 -1 0.866765 -1C0.866761 -1 0.866757 -1 0.866753 -1C0.86675 -1 0.866746 -1 0.866742 -1C0.866738 -1 0.866735 -1 0.866731 -1C0.866727 -1 0.866723 -1 0.866719 -1C0.866715 -1 0.866712 -1 0.866708 -1C0.866704 -1 0.8667 -1 0.866696 -1C0.866692 -1 0.866688 -1 0.866684 -1C0.866681 -1 0.866677 -1 0.866673 -1C0.866669 -1 0.866665 -1 0.866661 -1C0.866657 -1 0.866653 -1 0.866649 -1C0.866645 -1 0.866641 -1 0.866637 -1C0.866633 -1 0.866629 -1 0.866625 -1C0.866621 -1 0.866617 -1 0.866613 -1C0.866609 -1 0.866605 -1 0.866601 -1C0.866597 -1 0.866593 -1 0.866589 -1C0.866585 -1 0.866581 -1 0.866576 -1C0.866572 -1 0.866568 -1 0.866564 -1C0.86656 -1 0.866556 -1 0.866552 -1C0.866548 -1 0.866543 -1 0.866539 -1C0.866535 -1 0.866531 -1 0.866527 -1C0.866522 -1 0.866518 -1 0.866514 -1C0.86651 -1 0.866506 -1 0.866501 -1C0.866497 -1 0.866493 -1 0.866489 -1C0.866484 -1 0.86648 -1 0.866476 -1C0.866471 -1 0.866467 -1 0.866463 -1C0.866459 -1 0.866454 -1 0.86645 -1C0.866446 -1 0.866441 -1 0.866437 -1C0.866432 -1 0.866428 -1 0.866424 -1C0.866419 -1 0.866415 -1 0.866411 -1C0.866406 -1 0.866402 -1 0.866397 -1C0.866393 -1 0.866388 -1 0.866384 -1C0.866379 -1 0.866375 -1 0.866371 -1C0.866366 -1 0.866362 -1 0.866357 -1C0.866353 -1 0.866348 -1 0.866344 -1C0.866339 -1 0.866334 -1 0.86633 -1C0.866325 -1 0.866321 -1 0.866316 -1C0.866312 -1 0.866307 -1 0.866302 -1C0.866298 -1 0.866293 -1 0.866289 -1C0.866284 -1 0.866279 -1 0.866275 -1C0.86627 -1 0.866265 -1 0.866261 -1C0.866256 -1 0.866251 -1 0.866247 -1C0.866242 -1 0.866237 -1 0.866233 -1C0.866228 -1 0.866223 -1 0.866218 -1C0.866214 -1 0.866209 -1 0.866204 -1C0.866199 -1 0.866195 -1 0.86619 -1C0.866185 -1 0.86618 -1 0.866175 -1C0.866171 -1 0.866166 -1 0.866161 -1C0.866156 -1 0.866151 -1 0.866146 -1C0.866141 -1 0.866137 -1 0.866132 -1C0.866127 -1 0.866122 -1 0.866117 -1C0.866112 -1 0.866107 -1 0.866102 -1C0.866097 -1 0.866092 -1 0.866087 -1C0.866082 -1 0.866077 -1 0.866072 -1C0.866067 -1 0.866062 -1 0.866057 -1C0.866052 -1 0.866047 -1 0.866042 -1C0.866037 -1 0.866032 -1 0.866027 -1C0.866022 -1 0.866017 -1 0.866012 -1C0.866007 -1 0.866002 -1 0.865996 -1C0.865991 -1 0.865986 -1 0.865981 -1C0.865976 -1 0.865971 -1 0.865966 -1C0.86596 -1 0.865955 -1 0.86595 -1C0.865945 -1 0.86594 -1 0.865934 -1C0.865929 -1 0.865924 -1 0.865919 -1C0.865913 -1 0.865908 -1 0.865903 -1C0.865898 -1 0.865892 -1 0.865887 -1C0.865882 -1 0.865876 -1 0.865871 -1C0.865866 -1 0.86586 -1 0.865855 -1C0.86585 -1 0.865844 -1 0.865839 -1C0.865834 -1 0.865828 -1 0.865823 -1C0.865817 -1 0.865812 -1 0.865806 -1C0.865801 -1 0.865796 -1 0.86579 -1C0.865785 -1 0.865779 -1 0.865774 -1C0.865768 -1 0.865763 -1 0.865757 -1C0.865752 -1 0.865746 -1 0.865741 -1C0.865735 -1 0.865729 -1 0.865724 -1C0.865718 -1 0.865713 -1 0.865707 -1C0.865702 -1 0.865696 -1 0.86569 -1C0.865685 -1 0.865679 -1 0.865673 -1C0.865668 -1 0.865662 -1 0.865656 -1C0.865651 -1 0.865645 -1 0.865639 -1C0.865634 -1 0.865628 -1 0.865622 -1C0.865617 -1 0.865611 -1 0.865605 -1C0.865599 -1 0.865594 -1 0.865588 -1C0.865582 -1 0.865576 -1 0.86557 -1C0.865565 -1 0.865559 -1 0.865553 -1C0.865547 -1 0.865541 -1 0.865535 -1C0.865529 -1 0.865524 -1 0.865518 -1C0.865512 -1 0.865506 -1 0.8655 -1C0.865494 -1 0.865488 -1 0.865482 -1C0.865476 -1 0.86547 -1 0.865464 -1C0.865458 -1 0.865452 -1 0.865446 -1C0.86544 -1 0.865434 -1 0.865428 -1C0.865422 -1 0.865416 -1 0.86541 -1C0.865404 -1 0.865398 -1 0.865392 -1C0.865386 -1 0.86538 -1 0.865374 -1C0.865368 -1 0.865361 -1 0.865355 -1C0.865349 -1 0.865343 -1 0.865337 -1C0.865331 -1 0.865324 -1 0.865318 -1C0.865312 -1 0.865306 -1 0.8653 -1C0.865293 -1 0.865287 -1 0.865281 -1C0.865275 -1 0.865268 -1 0.865262 -1C0.865256 -1 0.865249 -1 0.865243 -1C0.865237 -1 0.865231 -1 0.865224 -1C0.865218 -1 0.865212 -1 0.865205 -1C0.865199 -1 0.865192 -1 0.865186 -1C0.86518 -1 0.865173 -1 0.865167 -1C0.86516 -1 0.865154 -1 0.865147 -1C0.865141 -1 0.865135 -1 0.865128 -1C0.865122 -1 0.865115 -1 0.865109 -1C0.865102 -1 0.865096 -1 0.865089 -1C0.865082 -1 0.865076 -1 0.865069 -1C0.865063 -1 0.865056 -1 0.86505 -1C0.865043 -1 0.865036 -1 0.86503 -1C0.865023 -1 0.865016 -1 0.86501 -1C0.865003 -1 0.864996 -1 0.86499 -1C0.864983 -1 0.864976 -1 0.86497 -1C0.864963 -1 0.864956 -1 0.864949 -1C0.864943 -1 0.864936 -1 0.864929 -1C0.864922 -1 0.864916 -1 0.864909 -1C0.864902 -1 0.864895 -1 0.864888 -1C0.864882 -1 0.864875 -1 0.864868 -1C0.864861 -1 0.864854 -1 0.864847 -1C0.86484 -1 0.864833 -1 0.864826 -1C0.86482 -1 0.864813 -1 0.864806 -1C0.864799 -1 0.864792 -1 0.864785 -1C0.864778 -1 0.864771 -1 0.864764 -1C0.864757 -1 0.86475 -1 0.864743 -1C0.864736 -1 0.864729 -1 0.864722 -1C0.864714 -1 0.864707 -1 0.8647 -1C0.864693 -1 0.864686 -1 0.864679 -1C0.864672 -1 0.864665 -1 0.864657 -1C0.86465 -1 0.864643 -1 0.864636 -1C0.864629 -1 0.864622 -1 0.864614 -1C0.864607 -1 0.8646 -1 0.864593 -1C0.864585 -1 0.864578 -1 0.864571 -1C0.864564 -1 0.864556 -1 0.864549 -1C0.864542 -1 0.864534 -1 0.864527 -1C0.86452 -1 0.864512 -1 0.864505 -1C0.864497 -1 0.86449 -1 0.864483 -1C0.864475 -1 0.864468 -1 0.86446 -1C0.864453 -1 0.864445 -1 0.864438 -1C0.864431 -1 0.864423 -1 0.864416 -1C0.864408 -1 0.864401 -1 0.864393 -1C0.864385 -1 0.864378 -1 0.86437 -1C0.864363 -1 0.864355 -1 0.864348 -1C0.86434 -1 0.864332 -1 0.864325 -1C0.864317 -1 0.86431 -1 0.864302 -1C0.864294 -1 0.864287 -1 0.864279 -1C0.864271 -1 0.864264 -1 0.864256 -1C0.864248 -1 0.86424 -1 0.864233 -1C0.864225 -1 0.864217 -1 0.864209 -1C0.864202 -1 0.864194 -1 0.864186 -1C0.864178 -1 0.86417 -1 0.864162 -1C0.864155 -1 0.864147 -1 0.864139 -1C0.864131 -1 0.864123 -1 0.864115 -1C0.864107 -1 0.864099 -1 0.864091 -1C0.864083 -1 0.864075 -1 0.864068 -1C0.86406 -1 0.864052 -1 0.864044 -1C0.864036 -1 0.864028 -1 0.864019 -1C0.864011 -1 0.864003 -1 0.863995 -1C0.863987 -1 0.863979 -1 0.863971 -1C0.863963 -1 0.863955 -1 0.863947 -1C0.863939 -1 0.86393 -1 0.863922 -1C0.863914 -1 0.863906 -1 0.863898 -1C0.86389 -1 0.863881 -1 0.863873 -1C0.863865 -1 0.863857 -1 0.863848 -1C0.86384 -1 0.863832 -1 0.863824 -1C0.863815 -1 0.863807 -1 0.863799 -1C0.86379 -1 0.863782 -1 0.863774 -1C0.863765 -1 0.863757 -1 0.863748 -1V1C0.863757 1 0.863765 1 0.863774 1C0.863782 1 0.86379 1 0.863799 1C0.863807 1 0.863815 1 0.863824 1C0.863832 1 0.86384 1 0.863848 1C0.863857 1 0.863865 1 0.863873 1C0.863881 1 0.86389 1 0.863898 1C0.863906 1 0.863914 1 0.863922 1C0.86393 1 0.863939 1 0.863947 1C0.863955 1 0.863963 1 0.863971 1C0.863979 1 0.863987 1 0.863995 1C0.864003 1 0.864011 1 0.864019 1C0.864028 1 0.864036 1 0.864044 1C0.864052 1 0.86406 1 0.864068 1C0.864075 1 0.864083 1 0.864091 1C0.864099 1 0.864107 1 0.864115 1C0.864123 1 0.864131 1 0.864139 1C0.864147 1 0.864155 1 0.864162 1C0.86417 1 0.864178 1 0.864186 1C0.864194 1 0.864202 1 0.864209 1C0.864217 1 0.864225 1 0.864233 1C0.86424 1 0.864248 1 0.864256 1C0.864264 1 0.864271 1 0.864279 1C0.864287 1 0.864294 1 0.864302 1C0.86431 1 0.864317 1 0.864325 1C0.864332 1 0.86434 1 0.864348 1C0.864355 1 0.864363 1 0.86437 1C0.864378 1 0.864385 1 0.864393 1C0.864401 1 0.864408 1 0.864416 1C0.864423 1 0.864431 1 0.864438 1C0.864445 1 0.864453 1 0.86446 1C0.864468 1 0.864475 1 0.864483 1C0.86449 1 0.864497 1 0.864505 1C0.864512 1 0.86452 1 0.864527 1C0.864534 1 0.864542 1 0.864549 1C0.864556 1 0.864564 1 0.864571 1C0.864578 1 0.864585 1 0.864593 1C0.8646 1 0.864607 1 0.864614 1C0.864622 1 0.864629 1 0.864636 1C0.864643 1 0.86465 1 0.864657 1C0.864665 1 0.864672 1 0.864679 1C0.864686 1 0.864693 1 0.8647 1C0.864707 1 0.864714 1 0.864722 1C0.864729 1 0.864736 1 0.864743 1C0.86475 1 0.864757 1 0.864764 1C0.864771 1 0.864778 1 0.864785 1C0.864792 1 0.864799 1 0.864806 1C0.864813 1 0.86482 1 0.864826 1C0.864833 1 0.86484 1 0.864847 1C0.864854 1 0.864861 1 0.864868 1C0.864875 1 0.864882 1 0.864888 1C0.864895 1 0.864902 1 0.864909 1C0.864916 1 0.864922 1 0.864929 1C0.864936 1 0.864943 1 0.864949 1C0.864956 1 0.864963 1 0.86497 1C0.864976 1 0.864983 1 0.86499 1C0.864996 1 0.865003 1 0.86501 1C0.865016 1 0.865023 1 0.86503 1C0.865036 1 0.865043 1 0.86505 1C0.865056 1 0.865063 1 0.865069 1C0.865076 1 0.865082 1 0.865089 1C0.865096 1 0.865102 1 0.865109 1C0.865115 1 0.865122 1 0.865128 1C0.865135 1 0.865141 1 0.865147 1C0.865154 1 0.86516 1 0.865167 1C0.865173 1 0.86518 1 0.865186 1C0.865192 1 0.865199 1 0.865205 1C0.865212 1 0.865218 1 0.865224 1C0.865231 1 0.865237 1 0.865243 1C0.865249 1 0.865256 1 0.865262 1C0.865268 1 0.865275 1 0.865281 1C0.865287 1 0.865293 1 0.8653 1C0.865306 1 0.865312 1 0.865318 1C0.865324 1 0.865331 1 0.865337 1C0.865343 1 0.865349 1 0.865355 1C0.865361 1 0.865368 1 0.865374 1C0.86538 1 0.865386 1 0.865392 1C0.865398 1 0.865404 1 0.86541 1C0.865416 1 0.865422 1 0.865428 1C0.865434 1 0.86544 1 0.865446 1C0.865452 1 0.865458 1 0.865464 1C0.86547 1 0.865476 1 0.865482 1C0.865488 1 0.865494 1 0.8655 1C0.865506 1 0.865512 1 0.865518 1C0.865524 1 0.865529 1 0.865535 1C0.865541 1 0.865547 1 0.865553 1C0.865559 1 0.865565 1 0.86557 1C0.865576 1 0.865582 1 0.865588 1C0.865594 1 0.865599 1 0.865605 1C0.865611 1 0.865617 1 0.865622 1C0.865628 1 0.865634 1 0.865639 1C0.865645 1 0.865651 1 0.865656 1C0.865662 1 0.865668 1 0.865673 1C0.865679 1 0.865685 1 0.86569 1C0.865696 1 0.865702 1 0.865707 1C0.865713 1 0.865718 1 0.865724 1C0.865729 1 0.865735 1 0.865741 1C0.865746 1 0.865752 1 0.865757 1C0.865763 1 0.865768 1 0.865774 1C0.865779 1 0.865785 1 0.86579 1C0.865796 1 0.865801 1 0.865806 1C0.865812 1 0.865817 1 0.865823 1C0.865828 1 0.865834 1 0.865839 1C0.865844 1 0.86585 1 0.865855 1C0.86586 1 0.865866 1 0.865871 1C0.865876 1 0.865882 1 0.865887 1C0.865892 1 0.865898 1 0.865903 1C0.865908 1 0.865913 1 0.865919 1C0.865924 1 0.865929 1 0.865934 1C0.86594 1 0.865945 1 0.86595 1C0.865955 1 0.86596 1 0.865966 1C0.865971 1 0.865976 1 0.865981 1C0.865986 1 0.865991 1 0.865996 1C0.866002 1 0.866007 1 0.866012 1C0.866017 1 0.866022 1 0.866027 1C0.866032 1 0.866037 1 0.866042 1C0.866047 1 0.866052 1 0.866057 1C0.866062 1 0.866067 1 0.866072 1C0.866077 1 0.866082 1 0.866087 1C0.866092 1 0.866097 1 0.866102 1C0.866107 1 0.866112 1 0.866117 1C0.866122 1 0.866127 1 0.866132 1C0.866137 1 0.866141 1 0.866146 1C0.866151 1 0.866156 1 0.866161 1C0.866166 1 0.866171 1 0.866175 1C0.86618 1 0.866185 1 0.86619 1C0.866195 1 0.866199 1 0.866204 1C0.866209 1 0.866214 1 0.866218 1C0.866223 1 0.866228 1 0.866233 1C0.866237 1 0.866242 1 0.866247 1C0.866251 1 0.866256 1 0.866261 1C0.866265 1 0.86627 1 0.866275 1C0.866279 1 0.866284 1 0.866289 1C0.866293 1 0.866298 1 0.866302 1C0.866307 1 0.866312 1 0.866316 1C0.866321 1 0.866325 1 0.86633 1C0.866334 1 0.866339 1 0.866344 1C0.866348 1 0.866353 1 0.866357 1C0.866362 1 0.866366 1 0.866371 1C0.866375 1 0.866379 1 0.866384 1C0.866388 1 0.866393 1 0.866397 1C0.866402 1 0.866406 1 0.866411 1C0.866415 1 0.866419 1 0.866424 1C0.866428 1 0.866432 1 0.866437 1C0.866441 1 0.866446 1 0.86645 1C0.866454 1 0.866459 1 0.866463 1C0.866467 1 0.866471 1 0.866476 1C0.86648 1 0.866484 1 0.866489 1C0.866493 1 0.866497 1 0.866501 1C0.866506 1 0.86651 1 0.866514 1C0.866518 1 0.866522 1 0.866527 1C0.866531 1 0.866535 1 0.866539 1C0.866543 1 0.866548 1 0.866552 1C0.866556 1 0.86656 1 0.866564 1C0.866568 1 0.866572 1 0.866576 1C0.866581 1 0.866585 1 0.866589 1C0.866593 1 0.866597 1 0.866601 1C0.866605 1 0.866609 1 0.866613 1C0.866617 1 0.866621 1 0.866625 1C0.866629 1 0.866633 1 0.866637 1C0.866641 1 0.866645 1 0.866649 1C0.866653 1 0.866657 1 0.866661 1C0.866665 1 0.866669 1 0.866673 1C0.866677 1 0.866681 1 0.866684 1C0.866688 1 0.866692 1 0.866696 1C0.8667 1 0.866704 1 0.866708 1C0.866712 1 0.866715 1 0.866719 1C0.866723 1 0.866727 1 0.866731 1C0.866735 1 0.866738 1 0.866742 1C0.866746 1 0.86675 1 0.866753 1C0.866757 1 0.866761 1 0.866765 1C0.866768 1 0.866772 1 0.866776 1C0.86678 1 0.866783 1 0.866787 1C0.866791 1 0.866794 1 0.866798 1C0.866802 1 0.866805 1 0.866809 1C0.866813 1 0.866816 1 0.86682 1C0.866824 1 0.866827 1 0.866831 1C0.866835 1 0.866838 1 0.866842 1C0.866845 1 0.866849 1 0.866853 1C0.866856 1 0.86686 1 0.866863 1C0.866867 1 0.86687 1 0.866874 1C0.866877 1 0.866881 1 0.866884 1C0.866888 1 0.866891 1 0.866895 1C0.866898 1 0.866902 1 0.866905 1C0.866909 1 0.866912 1 0.866916 1C0.866919 1 0.866923 1 0.866926 1C0.866929 1 0.866933 1 0.866936 1C0.86694 1 0.866943 1 0.866946 1C0.86695 1 0.866953 1 0.866956 1C0.86696 1 0.866963 1 0.866967 1C0.86697 1 0.866973 1 0.866976 1C0.86698 1 0.866983 1 0.866986 1C0.86699 1 0.866993 1 0.866996 1C0.867 1 0.867003 1 0.867006 1C0.867009 1 0.867013 1 0.867016 1C0.867019 1 0.867022 1 0.867026 1C0.867029 1 0.867032 1 0.867035 1C0.867038 1 0.867042 1 0.867045 1C0.867048 1 0.867051 1 0.867054 1C0.867057 1 0.867061 1 0.867064 1C0.867067 1 0.86707 1 0.867073 1C0.867076 1 0.867079 1 0.867082 1C0.867085 1 0.867089 1 0.867092 1C0.867095 1 0.867098 1 0.867101 1C0.867104 1 0.867107 1 0.86711 1C0.867113 1 0.867116 1 0.867119 1C0.867122 1 0.867125 1 0.867128 1C0.867131 1 0.867134 1 0.867137 1C0.86714 1 0.867143 1 0.867146 1C0.867149 1 0.867152 1 0.867155 1C0.867158 1 0.867161 1 0.867164 1C0.867166 1 0.867169 1 0.867172 1C0.867175 1 0.867178 1 0.867181 1C0.867184 1 0.867187 1 0.86719 1C0.867192 1 0.867195 1 0.867198 1C0.867201 1 0.867204 1 0.867207 1C0.867209 1 0.867212 1 0.867215 1C0.867218 1 0.867221 1 0.867223 1C0.867226 1 0.867229 1 0.867232 1C0.867235 1 0.867237 1 0.86724 1C0.867243 1 0.867246 1 0.867248 1C0.867251 1 0.867254 1 0.867256 1C0.867259 1 0.867262 1 0.867265 1C0.867267 1 0.86727 1 0.867273 1C0.867275 1 0.867278 1 0.867281 1C0.867283 1 0.867286 1 0.867289 1C0.867291 1 0.867294 1 0.867296 1C0.867299 1 0.867302 1 0.867304 1C0.867307 1 0.867309 1 0.867312 1C0.867315 1 0.867317 1 0.86732 1C0.867322 1 0.867325 1 0.867327 1C0.86733 1 0.867332 1 0.867335 1C0.867338 1 0.86734 1 0.867343 1C0.867345 1 0.867348 1 0.86735 1C0.867353 1 0.867355 1 0.867358 1C0.86736 1 0.867362 1 0.867365 1C0.867367 1 0.86737 1 0.867372 1C0.867375 1 0.867377 1 0.86738 1C0.867382 1 0.867384 1 0.867387 1C0.867389 1 0.867392 1 0.867394 1C0.867396 1 0.867399 1 0.867401 1C0.867403 1 0.867406 1 0.867408 1C0.867411 1 0.867413 1 0.867415 1C0.867418 1 0.86742 1 0.867422 1C0.867425 1 0.867427 1 0.867429 1C0.867431 1 0.867434 1 0.867436 1C0.867438 1 0.867441 1 0.867443 1C0.867445 1 0.867447 1 0.86745 1C0.867452 1 0.867454 1 0.867456 1C0.867459 1 0.867461 1 0.867463 1C0.867465 1 0.867467 1 0.86747 1C0.867472 1 0.867474 1 0.867476 1C0.867478 1 0.867481 1 0.867483 1C0.867485 1 0.867487 1 0.867489 1C0.867491 1 0.867493 1 0.867496 1C0.867498 1 0.8675 1 0.867502 1C0.867504 1 0.867506 1 0.867508 1C0.86751 1 0.867512 1 0.867515 1C0.867517 1 0.867519 1 0.867521 1C0.867523 1 0.867525 1 0.867527 1C0.867529 1 0.867531 1 0.867533 1C0.867535 1 0.867537 1 0.867539 1C0.867541 1 0.867543 1 0.867545 1C0.867547 1 0.867549 1 0.867551 1C0.867553 1 0.867555 1 0.867557 1C0.867559 1 0.867561 1 0.867563 1C0.867565 1 0.867567 1 0.867569 1C0.867571 1 0.867573 1 0.867575 1C0.867576 1 0.867578 1 0.86758 1C0.867582 1 0.867584 1 0.867586 1C0.867588 1 0.86759 1 0.867592 1C0.867593 1 0.867595 1 0.867597 1C0.867599 1 0.867601 1 0.867603 1C0.867605 1 0.867606 1 0.867608 1C0.86761 1 0.867612 1 0.867614 1C0.867616 1 0.867617 1 0.867619 1C0.867621 1 0.867623 1 0.867625 1C0.867626 1 0.867628 1 0.86763 1C0.867632 1 0.867633 1 0.867635 1C0.867637 1 0.867639 1 0.86764 1C0.867642 1 0.867644 1 0.867646 1C0.867647 1 0.867649 1 0.867651 1C0.867652 1 0.867654 1 0.867656 1C0.867658 1 0.867659 1 0.867661 1C0.867663 1 0.867664 1 0.867666 1C0.867668 1 0.867669 1 0.867671 1C0.867673 1 0.867674 1 0.867676 1C0.867677 1 0.867679 1 0.867681 1C0.867682 1 0.867684 1 0.867686 1C0.867687 1 0.867689 1 0.86769 1C0.867692 1 0.867693 1 0.867695 1C0.867697 1 0.867698 1 0.8677 1C0.867701 1 0.867703 1 0.867704 1C0.867706 1 0.867708 1 0.867709 1C0.867711 1 0.867712 1 0.867714 1C0.867715 1 0.867717 1 0.867718 1C0.86772 1 0.867721 1 0.867723 1C0.867724 1 0.867726 1 0.867727 1C0.867729 1 0.86773 1 0.867732 1C0.867733 1 0.867735 1 0.867736 1C0.867737 1 0.867739 1 0.86774 1C0.867742 1 0.867743 1 0.867745 1C0.867746 1 0.867747 1 0.867749 1C0.86775 1 0.867752 1 0.867753 1C0.867754 1 0.867756 1 0.867757 1C0.867759 1 0.86776 1 0.867761 1C0.867763 1 0.867764 1 0.867765 1C0.867767 1 0.867768 1 0.86777 1C0.867771 1 0.867772 1 0.867774 1C0.867775 1 0.867776 1 0.867778 1C0.867779 1 0.86778 1 0.867781 1C0.867783 1 0.867784 1 0.867785 1C0.867787 1 0.867788 1 0.867789 1C0.867791 1 0.867792 1 0.867793 1C0.867794 1 0.867796 1 0.867797 1C0.867798 1 0.867799 1 0.867801 1C0.867802 1 0.867803 1 0.867804 1C0.867806 1 0.867807 1 0.867808 1C0.867809 1 0.86781 1 0.867812 1C0.867813 1 0.867814 1 0.867815 1C0.867816 1 0.867818 1 0.867819 1C0.86782 1 0.867821 1 0.867822 1C0.867823 1 0.867825 1 0.867826 1C0.867827 1 0.867828 1 0.867829 1C0.86783 1 0.867831 1 0.867833 1C0.867834 1 0.867835 1 0.867836 1C0.867837 1 0.867838 1 0.867839 1C0.86784 1 0.867842 1 0.867843 1C0.867844 1 0.867845 1 0.867846 1C0.867847 1 0.867848 1 0.867849 1C0.86785 1 0.867851 1 0.867852 1C0.867853 1 0.867854 1 0.867856 1C0.867857 1 0.867858 1 0.867859 1C0.86786 1 0.867861 1 0.867862 1C0.867863 1 0.867864 1 0.867865 1C0.867866 1 0.867867 1 0.867868 1C0.867869 1 0.86787 1 0.867871 1C0.867872 1 0.867873 1 0.867874 1C0.867875 1 0.867876 1 0.867877 1C0.867878 1 0.867879 1 0.86788 1C0.867881 1 0.867881 1 0.867882 1C0.867883 1 0.867884 1 0.867885 1C0.867886 1 0.867887 1 0.867888 1C0.867889 1 0.86789 1 0.867891 1C0.867892 1 0.867893 1 0.867894 1C0.867894 1 0.867895 1 0.867896 1C0.867897 1 0.867898 1 0.867899 1C0.8679 1 0.867901 1 0.867902 1C0.867902 1 0.867903 1 0.867904 1C0.867905 1 0.867906 1 0.867907 1C0.867908 1 0.867908 1 0.867909 1C0.86791 1 0.867911 1 0.867912 1C0.867913 1 0.867913 1 0.867914 1C0.867915 1 0.867916 1 0.867917 1C0.867917 1 0.867918 1 0.867919 1C0.86792 1 0.867921 1 0.867921 1C0.867922 1 0.867923 1 0.867924 1C0.867925 1 0.867925 1 0.867926 1C0.867927 1 0.867928 1 0.867928 1C0.867929 1 0.86793 1 0.867931 1C0.867931 1 0.867932 1 0.867933 1C0.867934 1 0.867934 1 0.867935 1C0.867936 1 0.867937 1 0.867937 1C0.867938 1 0.867939 1 0.867939 1C0.86794 1 0.867941 1 0.867942 1C0.867942 1 0.867943 1 0.867944 1C0.867944 1 0.867945 1 0.867946 1C0.867946 1 0.867947 1 0.867948 1C0.867948 1 0.867949 1 0.86795 1C0.86795 1 0.867951 1 0.867952 1C0.867952 1 0.867953 1 0.867954 1C0.867954 1 0.867955 1 0.867956 1C0.867956 1 0.867957 1 0.867958 1C0.867958 1 0.867959 1 0.867959 1C0.86796 1 0.867961 1 0.867961 1C0.867962 1 0.867962 1 0.867963 1C0.867964 1 0.867964 1 0.867965 1C0.867965 1 0.867966 1 0.867967 1C0.867967 1 0.867968 1 0.867968 1C0.867969 1 0.867969 1 0.86797 1C0.867971 1 0.867971 1 0.867972 1C0.867972 1 0.867973 1 0.867973 1C0.867974 1 0.867974 1 0.867975 1C0.867976 1 0.867976 1 0.867977 1C0.867977 1 0.867978 1 0.867978 1C0.867979 1 0.867979 1 0.86798 1C0.86798 1 0.867981 1 0.867981 1C0.867982 1 0.867982 1 0.867983 1C0.867983 1 0.867984 1 0.867984 1C0.867985 1 0.867985 1 0.867986 1C0.867986 1 0.867987 1 0.867987 1C0.867988 1 0.867988 1 0.867989 1C0.867989 1 0.86799 1 0.86799 1C0.86799 1 0.867991 1 0.867991 1C0.867992 1 0.867992 1 0.867993 1C0.867993 1 0.867994 1 0.867994 1C0.867995 1 0.867995 1 0.867995 1C0.867996 1 0.867996 1 0.867997 1C0.867997 1 0.867997 1 0.867998 1C0.867998 1 0.867999 1 0.867999 1C0.868 1 0.868 1 0.868 1C0.868001 1 0.868001 1 0.868002 1C0.868002 1 0.868002 1 0.868003 1C0.868003 1 0.868004 1 0.868004 1C0.868004 1 0.868005 1 0.868005 1C0.868005 1 0.868006 1 0.868006 1C0.868006 1 0.868007 1 0.868007 1C0.868008 1 0.868008 1 0.868008 1C0.868009 1 0.868009 1 0.868009 1C0.86801 1 0.86801 1 0.86801 1C0.868011 1 0.868011 1 0.868011 1C0.868012 1 0.868012 1 0.868012 1C0.868013 1 0.868013 1 0.868013 1C0.868014 1 0.868014 1 0.868014 1C0.868015 1 0.868015 1 0.868015 1C0.868016 1 0.868016 1 0.868016 1C0.868016 1 0.868017 1 0.868017 1C0.868017 1 0.868018 1 0.868018 1C0.868018 1 0.868018 1 0.868019 1C0.868019 1 0.868019 1 0.86802 1C0.86802 1 0.86802 1 0.86802 1C0.868021 1 0.868021 1 0.868021 1C0.868021 1 0.868022 1 0.868022 1C0.868022 1 0.868023 1 0.868023 1C0.868023 1 0.868023 1 0.868024 1C0.868024 1 0.868024 1 0.868024 1C0.868025 1 0.868025 1 0.868025 1C0.868025 1 0.868025 1 0.868026 1C0.868026 1 0.868026 1 0.868026 1C0.868027 1 0.868027 1 0.868027 1C0.868027 1 0.868027 1 0.868028 1C0.868028 1 0.868028 1 0.868028 1C0.868029 1 0.868029 1 0.868029 1C0.868029 1 0.868029 1 0.86803 1C0.86803 1 0.86803 1 0.86803 1C0.86803 1 0.868031 1 0.868031 1C0.868031 1 0.868031 1 0.868031 1C0.868031 1 0.868032 1 0.868032 1C0.868032 1 0.868032 1 0.868032 1C0.868033 1 0.868033 1 0.868033 1C0.868033 1 0.868033 1 0.868033 1C0.868034 1 0.868034 1 0.868034 1C0.868034 1 0.868034 1 0.868034 1C0.868035 1 0.868035 1 0.868035 1C0.868035 1 0.868035 1 0.868035 1C0.868035 1 0.868036 1 0.868036 1C0.868036 1 0.868036 1 0.868036 1C0.868036 1 0.868036 1 0.868037 1C0.868037 1 0.868037 1 0.868037 1C0.868037 1 0.868037 1 0.868037 1C0.868037 1 0.868038 1 0.868038 1C0.868038 1 0.868038 1 0.868038 1C0.868038 1 0.868038 1 0.868038 1C0.868039 1 0.868039 1 0.868039 1C0.868039 1 0.868039 1 0.868039 1C0.868039 1 0.868039 1 0.868039 1C0.86804 1 0.86804 1 0.86804 1C0.86804 1 0.86804 1 0.86804 1C0.86804 1 0.86804 1 0.86804 1C0.86804 1 0.868041 1 0.868041 1C0.868041 1 0.868041 1 0.868041 1C0.868041 1 0.868041 1 0.868041 1C0.868041 1 0.868041 1 0.868041 1C0.868041 1 0.868042 1 0.868042 1C0.868042 1 0.868042 1 0.868042 1C0.868042 1 0.868042 1 0.868042 1C0.868042 1 0.868042 1 0.868042 1C0.868042 1 0.868042 1 0.868042 1C0.868042 1 0.868043 1 0.868043 1C0.868043 1 0.868043 1 0.868043 1C0.868043 1 0.868043 1 0.868043 1C0.868043 1 0.868043 1 0.868043 1C0.868043 1 0.868043 1 0.868043 1C0.868043 1 0.868043 1 0.868043 1C0.868043 1 0.868044 1 0.868044 1C0.868044 1 0.868044 1 0.868044 1C0.868044 1 0.868044 1 0.868044 1C0.868044 1 0.868044 1 0.868044 1C0.868044 1 0.868044 1 0.868044 1C0.868044 1 0.868044 1 0.868044 1C0.868044 1 0.868044 1 0.868044 1C0.868044 1 0.868044 1 0.868044 1C0.868044 1 0.868044 1 0.868044 1C0.868045 1 0.868045 1 0.868045 1C0.868045 1 0.868045 1 0.868045 1C0.868045 1 0.868045 1 0.868045 1C0.868045 1 0.868045 1 0.868045 1C0.868045 1 0.868045 1 0.868045 1C0.868045 1 0.868045 1 0.868045 1C0.868045 1 0.868045 1 0.868045 1C0.868045 1 0.868045 1 0.868045 1C0.868045 1 0.868045 1 0.868045 1C0.868045 1 0.868045 1 0.868045 1C0.868045 1 0.868045 1 0.868045 1C0.868045 1 0.868045 1 0.868045 1C0.868045 1 0.868045 1 0.868045 1C0.868045 1 0.868045 1 0.868045 1H0.868045C0.868045 1 0.868045 1 0.868045 1C0.868045 1 0.868045 1 0.868045 1C0.868045 1 0.868045 1 0.868045 1C0.868045 1 0.868045 1 0.868045 1C0.868045 1 0.868045 1 0.868045 1C0.868045 1 0.868045 1 0.868045 1C0.868045 1 0.868045 1 0.868045 0ZM0.863748 -1C-0.223704 -1 -0.66218 0.357259 0.1583 1.01212L1.40592 -0.551039C2.03733 -0.0470795 1.70198 1 0.863748 1V-1ZM0.151606 1.00673L8.11371 7.47439L9.37472 5.92202L1.41261 -0.545649L0.151606 1.00673ZM8.74422 6.6982C9.56989 7.26235 8.88242 7.68861 8.10451 7.46683C8.09687 7.4604 8.08187 7.4474 8.07448 7.4408C8.06688 7.43395 8.06102 7.42844 8.05998 7.42746C8.05626 7.42398 8.05337 7.42121 8.05285 7.42071C8.05102 7.41896 8.04959 7.41757 8.04933 7.41732C8.04842 7.41644 8.0477 7.41575 8.04757 7.41562C8.04712 7.41518 8.04677 7.41484 8.0467 7.41478C8.04658 7.41465 8.04648 7.41456 8.04643 7.41451C8.04638 7.41446 8.04634 7.41443 8.04633 7.41441C8.04628 7.41436 8.04633 7.41441 8.04658 7.41465C8.04706 7.41512 8.04809 7.41613 8.05023 7.41822L9.4468 5.98658C9.44464 5.98447 9.44352 5.98338 9.44293 5.9828C9.44264 5.98252 9.44242 5.98231 9.44224 5.98213C9.44217 5.98207 9.44198 5.98188 9.44174 5.98165C9.44168 5.98158 9.44132 5.98123 9.44086 5.98079C9.44073 5.98066 9.44002 5.97997 9.43911 5.97909C9.43885 5.97884 9.43741 5.97745 9.43558 5.9757C9.43506 5.9752 9.43217 5.97243 9.42846 5.96895C9.42741 5.96796 9.42155 5.96246 9.41395 5.9556C9.40656 5.94901 9.39156 5.936 9.38394 5.9296C8.60602 5.7078 7.91854 6.13406 8.74422 6.6982ZM8.11693 7.4777L9.34154 8.4753L10.6047 6.9247L9.3801 5.92709L8.11693 7.4777ZM9.34233 8.47596C10.3028 9.25672 11.6931 9.25672 12.6535 8.47596L11.3919 6.92405C11.1664 7.10735 10.8294 7.10735 10.6039 6.92405L9.34233 8.47596ZM12.6534 8.47604L21.8444 1.00658L20.5831 -0.545502L11.392 6.92396L12.6534 8.47604ZM21.8376 1.01212C22.6581 0.357247 22.2195 -1 21.1321 -1V1C20.2939 1 19.9585 -0.047067 20.5899 -0.551039L21.8376 1.01212Z" fill="#2B3991" mask="url(#path-3-inside-1_850_577)"/>
<path d="M0.5 11.0967V1.74797L6.89847 6.94248L0.5 11.0967Z" fill="#162B60" stroke="#2B3991"/>
</svg>
