<svg width="45" height="46" viewBox="0 0 45 46" fill="none" xmlns="http://www.w3.org/2000/svg">
<path fill-rule="evenodd" clip-rule="evenodd" d="M37.0292 8.27772C33.1516 4.39557 27.9947 2.25667 22.5008 2.25439C11.1802 2.25439 1.96687 11.4675 1.96231 22.7911C1.9608 26.4109 2.90642 29.9445 4.7038 33.0591L1.79004 43.7018L12.6778 40.8457C15.6778 42.4822 19.0553 43.3446 22.4925 43.3456H22.5011C33.8204 43.3456 43.0348 34.1317 43.0391 22.8076C43.0413 17.3195 40.907 12.1596 37.0292 8.27772ZM22.5008 39.877H22.4937C19.4307 39.8758 16.4266 39.0526 13.8053 37.4976L13.1822 37.1275L6.72127 38.8224L8.4458 32.5231L8.03978 31.8772C6.33093 29.1593 5.42857 26.0178 5.43009 22.7924C5.43363 13.3805 13.0917 5.72318 22.5076 5.72318C27.0673 5.7247 31.3534 7.50261 34.5763 10.7293C37.7992 13.956 39.5731 18.2449 39.5715 22.8063C39.5675 32.219 31.91 39.877 22.5008 39.877ZM31.8644 27.0919C31.3514 26.8349 28.8282 25.5938 28.3577 25.4223C27.8877 25.2511 27.5451 25.1658 27.2034 25.6793C26.8611 26.1929 25.8778 27.349 25.5783 27.6912C25.2787 28.0338 24.9797 28.0768 24.4664 27.8198C23.9531 27.563 22.2997 27.0209 20.3394 25.2726C18.814 23.9118 17.7841 22.2313 17.4846 21.7178C17.1856 21.2037 17.4821 20.9528 17.7097 20.6704C18.2653 19.9806 18.8216 19.2573 18.9926 18.9151C19.1638 18.5725 19.0781 18.2727 18.9496 18.016C18.8216 17.7592 17.7952 15.2333 17.3677 14.2054C16.9508 13.2052 16.5281 13.3402 16.2129 13.3246C15.9139 13.3096 15.5716 13.3066 15.2293 13.3066C14.8873 13.3066 14.3313 13.4349 13.8607 13.9489C13.3904 14.4627 12.0649 15.704 12.0649 18.23C12.0649 20.7559 13.9037 23.1961 14.1602 23.5387C14.4168 23.8812 17.779 29.0646 22.9268 31.2873C24.1512 31.8165 25.107 32.132 25.8525 32.3685C27.0819 32.7591 28.2003 32.7039 29.0847 32.5719C30.0708 32.4244 32.1207 31.3303 32.5487 30.1317C32.9762 28.9328 32.9762 27.9055 32.8477 27.6912C32.7197 27.4772 32.3775 27.349 31.8644 27.0919Z" fill="white"/>
</svg>
